<?xml version="1.0" encoding="UTF-8"?>
<svg width="47px" height="51px" viewBox="0 0 47 51" version="1.1" xmlns="http://www.w3.org/2000/svg" xmlns:xlink="http://www.w3.org/1999/xlink">
    <!-- Generator: Sketch 47.1 (45422) - http://www.bohemiancoding.com/sketch -->
    <title>Android_logo</title>
    <desc>Created with Sketch.</desc>
    <defs></defs>
    <g id="Symbols" stroke="none" stroke-width="1" fill="none" fill-rule="evenodd">
        <g id="button/Download/android" transform="translate(-24.000000, -11.000000)" fill="#313131">
            <g id="Android_logo" transform="translate(24.000000, 11.000000)">
                <path d="M7.84615385,26.917518 L7.84615385,38.9319411 C7.84615385,39.857159 8.43724245,40.8091947 9.3435783,40.8091947 L13.1002747,40.8091947 L13.1002747,47.781851 C13.1002747,49.5652419 14.5057521,51 16.2527473,51 C17.9997424,51 19.4052198,49.5652419 19.4052198,47.781851 L19.4052198,40.8091947 L25.8415179,40.8091947 L25.8415179,47.781851 C25.8415179,48.7875225 26.2881181,49.6859225 26.9974245,50.2759165 C27.5097012,50.7318209 28.192737,51 28.9283139,51 L28.9677198,51 L28.9939904,51 C30.7409856,51 32.1464629,49.5652419 32.1464629,47.781851 L32.1464629,40.8091947 L35.7718063,40.8091947 C36.6912775,40.8091947 37.2692308,39.857159 37.2692308,38.9453501 L37.2692308,26.930927 L37.2692308,16.6730769 L7.84615385,16.6730769 L7.84615385,26.917518 Z" id="Fill-1"></path>
                <path d="M43.1538462,15.6923077 C41.5233173,15.6923077 40.2115385,17.0769631 40.2115385,18.7980769 L40.2115385,31.2211538 C40.2115385,32.9422676 41.5233173,34.3269231 43.1538462,34.3269231 C44.784375,34.3269231 46.0961538,32.9422676 46.0961538,31.2211538 L46.0961538,18.7980769 C46.0961538,17.0769631 44.784375,15.6923077 43.1538462,15.6923077" id="Fill-3"></path>
                <path d="M2.94230769,15.6923077 C1.31177885,15.6923077 0,17.0769631 0,18.7980769 L0,31.2211538 C0,32.9422676 1.31177885,34.3269231 2.94230769,34.3269231 C4.57283654,34.3269231 5.88461538,32.9422676 5.88461538,31.2211538 L5.88461538,18.7980769 C5.88461538,17.0769631 4.57283654,15.6923077 2.94230769,15.6923077" id="Fill-5"></path>
                <path d="M29.0581395,10.4871383 C28.0843883,10.4871383 27.2817015,9.64759487 27.2817015,8.62615034 C27.2817015,7.60470581 28.0712295,6.76516236 29.0581395,6.76516236 C30.0318907,6.76516236 30.8345775,7.60470581 30.8345775,8.62615034 C30.8345775,9.64759487 30.0318907,10.4871383 29.0581395,10.4871383 M16.1098803,10.4871383 C15.1361291,10.4871383 14.3334423,9.64759487 14.3334423,8.62615034 C14.3334423,7.60470581 15.1229703,6.76516236 16.1098803,6.76516236 C17.0836315,6.76516236 17.8863183,7.60470581 17.8863183,8.62615034 C17.8863183,9.64759487 17.0967903,10.4871383 16.1098803,10.4871383 M29.8476675,3.5189277 L32.2820455,0.454594116 C32.3346807,0.384632162 32.2557279,0.230715863 32.1109811,0.104784346 C31.9662343,-0.00715478062 31.7951699,-0.0351395622 31.7556935,0.0488147826 L29.2292039,3.23907988 C27.4396071,2.48349078 25.2552463,2.00774949 22.5708511,2.00774949 C19.8732971,1.9937571 17.6757775,2.455506 15.8861807,3.19710271 L13.3860087,0.0628071734 C13.3333735,-0.00715478062 13.1754679,0.00683761018 13.0307211,0.118776737 C12.8859743,0.230715863 12.8070215,0.370639771 12.8596567,0.468586506 L15.2677171,3.49094292 C8.92517545,6.41535259 7.97774185,13.5934491 7.84615385,15.6923077 L37.2692308,15.6923077 C37.1508016,13.5794567 36.2165268,6.49930694 29.8476675,3.5189277" id="Fill-7"></path>
            </g>
        </g>
    </g>
</svg>