<?xml version="1.0" encoding="UTF-8"?>
<svg width="40px" height="49px" viewBox="0 0 40 49" version="1.1" xmlns="http://www.w3.org/2000/svg" xmlns:xlink="http://www.w3.org/1999/xlink">
    <!-- Generator: Sketch 47.1 (45422) - http://www.bohemiancoding.com/sketch -->
    <title>Group 5</title>
    <desc>Created with Sketch.</desc>
    <defs></defs>
    <g id="Symbols" stroke="none" stroke-width="1" fill="none" fill-rule="evenodd">
        <g id="button/Download" transform="translate(-25.000000, -11.000000)" fill="#313131">
            <g id="IOS" transform="translate(25.000000, 11.000000)">
                <g id="Group-5" transform="translate(0.000000, 0.736979)">
                    <path d="M37.5282681,17.1337277 C37.0760979,17.4136426 32.7060979,20.1178553 32.7599277,25.568366 C32.8176723,32.1385362 38.388566,34.4170043 38.6968638,34.5422809 L38.6988213,34.5422809 L38.7115447,34.5481532 L39.149034,34.729217 L38.9992894,35.1764936 C38.9904809,35.2029191 39.0002681,35.1745362 38.9875447,35.2166213 C38.8456298,35.6717277 37.8815872,38.7586213 35.7049064,41.9404511 C34.7163957,43.3830894 33.7102681,44.8237702 32.5220979,45.9356 C31.2918426,47.0865787 29.8863957,47.8627064 28.1501404,47.8950043 C26.5137149,47.9263234 25.4429915,47.4624085 24.3292043,46.9808766 C23.2672894,46.5208766 22.1632894,46.0432596 20.4358426,46.0432596 C18.6203106,46.0432596 17.4595447,46.5375149 16.3418426,47.0141532 C15.2897149,47.4624085 14.2728213,47.895983 12.8066936,47.9537277 L12.8047362,47.9537277 C11.1125234,48.0173447 9.6444383,47.1922809 8.3398,45.9698553 C7.09192766,44.8002809 5.99869362,43.2695574 5.00235319,41.8278979 C2.75324681,38.5804936 0.796778723,33.855217 0.192906383,29.0506638 C-0.304285106,25.0985787 0.110693617,21.0828766 2.02214043,17.7679404 C3.08894894,15.9122809 4.57954468,14.3981957 6.32265106,13.3421532 C8.05694894,12.2900255 10.0427787,11.6920255 12.1088638,11.6607064 L12.1088638,11.6607064 C13.9175447,11.6284085 15.6234596,12.3047064 17.1160128,12.896834 C18.1720553,13.3167064 19.1135872,13.6896 19.8192468,13.6896 C20.4426936,13.6896 21.3617149,13.3274723 22.4324383,12.9056426 C24.2411191,12.1921532 26.4540128,11.3201106 28.7941404,11.5520681 C29.7767787,11.5951319 31.8242681,11.8310043 33.9167787,12.964366 C35.2498,13.6866638 36.601417,14.7710894 37.7132468,16.3977277 L38.0058851,16.8273872 L37.5683957,17.1092596 C37.5449064,17.1249191 37.567417,17.1092596 37.5282681,17.1337277 Z" id="Fill-3"></path>
                    <path d="M28.8569745,4.75483404 C28.3999106,6.15930213 27.659017,7.46002553 26.7674,8.54249362 L26.7674,8.54445106 C25.8669745,9.63377021 24.6641234,10.5958553 23.3262085,11.233983 C22.0988894,11.8192596 20.7531447,12.1353872 19.4132723,12.0306638 L19.0031872,11.998366 L18.9493574,11.5902383 C18.7751447,10.274834 18.9767617,8.94181277 19.3995702,7.70862128 C19.8918681,6.27381277 20.6895277,4.96525957 21.5459106,3.97283404 L21.5459106,3.97283404 C22.4316553,2.93538723 23.6188468,2.03300426 24.8911872,1.3782383 C26.1674426,0.722493617 27.538634,0.311429787 28.7855277,0.26053617 L29.2572723,0.241940426 L29.3091447,0.712706383 C29.4598681,2.09074894 29.2768468,3.46781277 28.8569745,4.75483404 Z" id="Fill-1"></path>
                </g>
            </g>
        </g>
    </g>
</svg>