<?xml version="1.0" encoding="utf-8"?>
<!-- Generator: Adobe Illustrator 19.0.0, SVG Export Plug-In . SVG Version: 6.00 Build 0)  -->
<svg width="65px" height="49px" version="1.1" id="Layer_2" xmlns="http://www.w3.org/2000/svg" xmlns:xlink="http://www.w3.org/1999/xlink" x="0px" y="0px"
	 viewBox="23 -3 60 24" style="enable-background:new 23 -3 60 24;" xml:space="preserve">
<style type="text/css">
	.st0{fill:#313131;}
</style>
<path id="Page-1" class="st0" d="M73.8-3c-4.7,0.3-6.9,2.7-8,6.4c-1.9,6.3-3.1,10.4-4.3,13C59.4,9.7,58.5-3,52.2-3H39.3
	C33.8-3,26.4,7.7,23,21h5.8c4.8-0.3,7.1-2.6,8.2-6.2c0.9-2.8,1.6-5.3,2.2-7.3c1.5-2.2,1.9-4,3.3-5.5h1.2C46,8.7,46.7,21,53,21h12
	c4.9,0,9.8-9.2,18-24H73.8z"/>
</svg>
