<?xml version="1.0" encoding="utf-8"?>
<!-- Generator: Adobe Illustrator 18.0.0, SVG Export Plug-In . SVG Version: 6.00 Build 0)  -->
<!DOCTYPE svg PUBLIC "-//W3C//DTD SVG 1.1//EN" "http://www.w3.org/Graphics/SVG/1.1/DTD/svg11.dtd">
<svg version="1.1" id="Layer_1" xmlns="http://www.w3.org/2000/svg" xmlns:xlink="http://www.w3.org/1999/xlink" x="0px" y="0px"
	 width="20px" height="20px" viewBox="0 0 20 20" enable-background="new 0 0 20 20" xml:space="preserve">
<path fill="#54B3AD" d="M12,18.7c-0.7,1.2-2.2,1.6-3.4,0.9C7.4,19,7,17.4,7.7,16.2L12,18.7z M17.4,4.6c-0.3-0.6-0.3-1.3,0-1.8
	c0,0,0,0,0,0c0.5-0.9,0.2-2-0.7-2.5c-0.9-0.5-2-0.2-2.5,0.7c0,0,0,0,0,0c-0.3,0.6-0.9,0.9-1.6,0.9c-4.7,0-6.5,8-10.8,7.1L1,10.5
	l15,8.9l0.9-1.6C13.9,14.4,19.8,8.8,17.4,4.6z M16.2,1.2c0.4,0.2,0.5,0.7,0.3,1c-0.2,0.4-0.7,0.5-1,0.3c-0.4-0.2-0.5-0.7-0.3-1
	C15.4,1.1,15.9,1,16.2,1.2z M4.4,10.4c2.8-1.1,4.5-4.4,6.4-6c1.1-0.9,2.3-1.2,3.8-0.4c1.4,0.8,1.8,2.1,1.6,3.5
	c-0.4,2.6-2.3,5.7-1.8,8.7L4.4,10.4z"/>
</svg>
